<svg version="1" xmlns="http://www.w3.org/2000/svg" width="173.333" height="173.333" viewBox="0 0 130.000000 130.000000"><path d="M26.2 2.6C20.8 5.3 18 8.4 15.3 14.7c-1.4 3.3-1.6 9.8-1.5 50.3 0 33 .3 47.4 1.1 49.5 2.3 5.9 6.3 10.4 11.4 13l5.1 2.5h33.5c30.7 0 33.9-.2 37.6-1.9 8.9-4.2 12.6-10.2 13.3-21.4l.5-7.7h-5.2c-2.8 0-5.1.3-5.1.7-.1.5-.2 3.3-.4 6.4-.3 7.1-3.2 11.4-8.6 12.9-2.4.6-15.8 1-33.8 1-29.9-.1-29.9-.1-33.4-2.5-2-1.3-4.1-3.9-4.7-5.6-.7-2.2-1.1-17.6-1.1-47.7C24 6 21.8 10 54 10h19v7c0 8.4 1.5 11.9 6.5 15 3 1.9 5.1 2.2 14.8 2.3l11.2.2.2 5.5c.1 3 .2 6.3.2 7.2.1 1.5 1 1.8 5.1 1.8h5V26.3l-14.2-10.4C94 10.2 85.9 4.3 83.7 2.7l-4-2.7H55.5C31.6 0 31.4 0 26.2 2.6zM90 20l5.5 4H91c-2.5 0-5.1-.4-5.9-.9-1.5-.9-2.5-7.1-1.3-7.1.4 0 3.2 1.8 6.2 4z"/><path d="M54.6 44.7c-.6 2.2-.6 45.1 0 47.4.4 1.3 1.7 1.7 6.4 1.7 5.9 0 6-.1 6.4-3.2.6-4.1.6-43.6 0-45.9C67 43.3 65.7 43 61 43s-6 .3-6.4 1.7zM81 55l-3.5.5-.3 18.4c-.2 13.8.1 18.7 1 19.2 1.9 1.2 10.7.8 11.6-.4.4-.7.8-5.3.8-10.2.2-12.5.2-12.3 2.4-14.5 2.6-2.6 7.2-2.6 9.5 0 1.5 1.7 1.9 4 2.1 12.8.1 5.9.2 11.3.3 12 .2 2 11 1.3 12-.7.5-.9.7-7.5.6-14.6-.3-14.2-1.3-18-6.1-21.1-3.9-2.6-11.3-2.7-16-.4-3.2 1.7-4.1 1.8-4.9.7-1.3-1.7-5-2.4-9.5-1.7z"/></svg>